# xmcd
#
# Track frame offsets:
#	150
#	14743
#	29666
#	45054
#	60150
#	76741
#	90961
#	107543
#	125195
#	142391
#	156362
#	167743
#	182027
#	195261
#
# Disc length: 2813 seconds
#
# Revision: 0
# Processed by: cddbd v1.5.1PL0 Copyright (c) Steve Scherf et al.
# Submitted via: EasyCDDAExtractor 7.7.1.2
#
DISCID=af0afb0e
DTITLE=Neo Pi Neo - Macho Fêi
DYEAR=1900
DGENRE=Forró
TTITLE0=Macho Fêi
TTITLE1=Bebete a Pivete
TTITLE2=Kaká Num Ké Keké
TTITLE3=A Praga
TTITLE4=Pererequinha
TTITLE5=Siliconada
TTITLE6=A Do Véi
TTITLE7=O Clone
TTITLE8=A Folk You Ontõin Fi Fret
TTITLE9=O Pum
TTITLE10=As Kenga
TTITLE11=Zoologicuzin
TTITLE12=O Periquito
TTITLE13=Pu Tin
EXTD=
EXTT0=
EXTT1=
EXTT2=
EXTT3=
EXTT4=
EXTT5=
EXTT6=
EXTT7=
EXTT8=
EXTT9=
EXTT10=
EXTT11=
EXTT12=
EXTT13=
PLAYORDER=
